<?xml version="1.0" encoding="utf-8"?>
<!-- Generator: Adobe Illustrator 21.0.2, SVG Export Plug-In . SVG Version: 6.00 Build 0)  -->
<svg version="1.1" id="Layer_1" xmlns="http://www.w3.org/2000/svg" xmlns:xlink="http://www.w3.org/1999/xlink" x="0px" y="0px"
	 width="24px" height="24px" viewBox="0 0 24 24" enable-background="new 0 0 24 24" xml:space="preserve">
<path fill="none" d="M0,0h24v24H0V0z"/>
<path d="M5.3,2.7H8V0H5.3V2.7z M5.3,24H8v-2.7H5.3V24z M10.7,24h2.7v-2.7h-2.7V24z M0,24h2.7v-2.7H0V24z M0,18.7h2.7V16H0V18.7z
	 M0,13.3h2.7v-2.7H0V13.3z M0,8h2.7V5.3H0V8z M0,2.7h2.7V0H0V2.7z M21.3,18.7H24V16h-2.7V18.7z M21.3,13.3H24v-2.7h-2.7V13.3z
	 M21.3,24H24v-2.7h-2.7V24z M21.3,8H24V5.3h-2.7V8z M21.3,0v2.7H24V0H21.3z M10.7,2.7h2.7V0h-2.7V2.7z M16,24h2.7v-2.7H16V24z
	 M16,2.7h2.7V0H16V2.7z"/>
<g>
	<path d="M17.3,7.3h-2l-2-2h-2.7l-2,2h-2c-0.7,0-1.3,0.6-1.3,1.3v8.7c0,0.7,0.6,1.3,1.3,1.3h10.7c0.7,0,1.3-0.6,1.3-1.3V8.7
		C18.7,7.9,18.1,7.3,17.3,7.3z M12,16c-1.8,0-3.3-1.5-3.3-3.3s1.5-3.3,3.3-3.3s3.3,1.5,3.3,3.3S13.8,16,12,16z"/>
	<circle cx="12" cy="12.7" r="2"/>
</g>
</svg>
